<mxfile host="65bd71144e">
    <diagram id="DV0fT5axaWm1kAziyz8C" name="Component Tree">
        <mxGraphModel dx="572" dy="570" grid="0" gridSize="10" guides="0" tooltips="1" connect="1" arrows="1" fold="1" page="0" pageScale="1" pageWidth="827" pageHeight="1169" math="0" shadow="0">
            <root>
                <mxCell id="0"/>
                <mxCell id="1" parent="0"/>
                <mxCell id="13" value="v" style="swimlane;startSize=7;horizontal=1;childLayout=treeLayout;horizontalTree=0;resizable=0;containerType=tree;strokeColor=none;" parent="1" vertex="1">
                    <mxGeometry x="90" y="60" width="1995" height="627" as="geometry"/>
                </mxCell>
                <mxCell id="14" value="Root" style="whiteSpace=wrap;html=1;" parent="13" vertex="1">
                    <mxGeometry x="1026.25" y="27" width="100" height="40" as="geometry"/>
                </mxCell>
                <mxCell id="15" value="Landing" style="whiteSpace=wrap;html=1;" parent="13" vertex="1">
                    <mxGeometry x="1166.25" y="117" width="100" height="40" as="geometry"/>
                </mxCell>
                <mxCell id="16" value="" style="edgeStyle=elbowEdgeStyle;elbow=vertical;html=1;rounded=0;" parent="13" source="14" target="15" edge="1">
                    <mxGeometry relative="1" as="geometry"/>
                </mxCell>
                <mxCell id="17" value="Dashboard" style="whiteSpace=wrap;html=1;" parent="13" vertex="1">
                    <mxGeometry x="1026.25" y="117" width="100" height="40" as="geometry"/>
                </mxCell>
                <mxCell id="18" value="" style="edgeStyle=elbowEdgeStyle;elbow=vertical;html=1;rounded=0;" parent="13" source="14" target="17" edge="1">
                    <mxGeometry relative="1" as="geometry"/>
                </mxCell>
                <mxCell id="19" value="" style="edgeStyle=elbowEdgeStyle;elbow=vertical;html=1;rounded=0;" parent="13" source="14" target="20" edge="1">
                    <mxGeometry relative="1" as="geometry">
                        <mxPoint x="-15843.875" y="127" as="sourcePoint"/>
                    </mxGeometry>
                </mxCell>
                <mxCell id="20" value="About" style="whiteSpace=wrap;html=1;" parent="13" vertex="1">
                    <mxGeometry x="886.25" y="117" width="100" height="40" as="geometry"/>
                </mxCell>
                <mxCell id="21" value="" style="edgeStyle=elbowEdgeStyle;elbow=vertical;html=1;rounded=0;" parent="13" source="17" target="22" edge="1">
                    <mxGeometry relative="1" as="geometry">
                        <mxPoint x="-15703.875" y="127" as="sourcePoint"/>
                    </mxGeometry>
                </mxCell>
                <mxCell id="22" value="Card" style="whiteSpace=wrap;html=1;" parent="13" vertex="1">
                    <mxGeometry x="1026.25" y="207" width="100" height="40" as="geometry"/>
                </mxCell>
                <mxCell id="28" value="" style="edgeStyle=elbowEdgeStyle;elbow=vertical;html=1;rounded=0;" parent="13" source="22" target="29" edge="1">
                    <mxGeometry relative="1" as="geometry">
                        <mxPoint x="-15703.875" y="217" as="sourcePoint"/>
                    </mxGeometry>
                </mxCell>
                <mxCell id="29" value="Top" style="whiteSpace=wrap;html=1;" parent="13" vertex="1">
                    <mxGeometry x="387.5" y="297" width="100" height="40" as="geometry"/>
                </mxCell>
                <mxCell id="30" value="" style="edgeStyle=elbowEdgeStyle;elbow=vertical;html=1;rounded=0;" parent="13" source="22" target="31" edge="1">
                    <mxGeometry relative="1" as="geometry">
                        <mxPoint x="-15703.875" y="217" as="sourcePoint"/>
                    </mxGeometry>
                </mxCell>
                <mxCell id="31" value="Left&lt;br&gt;" style="whiteSpace=wrap;html=1;" parent="13" vertex="1">
                    <mxGeometry x="1105" y="297" width="100" height="40" as="geometry"/>
                </mxCell>
                <mxCell id="25" value="Right" style="whiteSpace=wrap;html=1;" parent="13" vertex="1">
                    <mxGeometry x="1665" y="297" width="100" height="40" as="geometry"/>
                </mxCell>
                <mxCell id="24" value="" style="edgeStyle=elbowEdgeStyle;elbow=vertical;html=1;rounded=0;" parent="13" source="22" target="25" edge="1">
                    <mxGeometry relative="1" as="geometry">
                        <mxPoint x="-15703.875" y="217" as="sourcePoint"/>
                    </mxGeometry>
                </mxCell>
                <mxCell id="72" value="" style="edgeStyle=elbowEdgeStyle;elbow=vertical;html=1;rounded=0;" parent="13" source="31" target="73" edge="1">
                    <mxGeometry relative="1" as="geometry">
                        <mxPoint x="-14472.875" y="307" as="sourcePoint"/>
                    </mxGeometry>
                </mxCell>
                <mxCell id="73" value="Logo" style="whiteSpace=wrap;html=1;" parent="13" vertex="1">
                    <mxGeometry x="895" y="387" width="100" height="40" as="geometry"/>
                </mxCell>
                <mxCell id="74" value="" style="edgeStyle=elbowEdgeStyle;elbow=vertical;html=1;rounded=0;" parent="13" source="31" target="75" edge="1">
                    <mxGeometry relative="1" as="geometry">
                        <mxPoint x="-14472.875" y="307" as="sourcePoint"/>
                    </mxGeometry>
                </mxCell>
                <mxCell id="75" value="Carrier" style="whiteSpace=wrap;html=1;" parent="13" vertex="1">
                    <mxGeometry x="1035" y="387" width="100" height="40" as="geometry"/>
                </mxCell>
                <mxCell id="76" value="" style="edgeStyle=elbowEdgeStyle;elbow=vertical;html=1;rounded=0;" parent="13" source="31" target="77" edge="1">
                    <mxGeometry relative="1" as="geometry">
                        <mxPoint x="-14276.875" y="307" as="sourcePoint"/>
                    </mxGeometry>
                </mxCell>
                <mxCell id="77" value="Aggregates" style="whiteSpace=wrap;html=1;" parent="13" vertex="1">
                    <mxGeometry x="1175" y="387" width="100" height="40" as="geometry"/>
                </mxCell>
                <mxCell id="78" value="" style="edgeStyle=elbowEdgeStyle;elbow=vertical;html=1;rounded=0;" parent="13" source="31" target="79" edge="1">
                    <mxGeometry relative="1" as="geometry">
                        <mxPoint x="-14024.875" y="307" as="sourcePoint"/>
                    </mxGeometry>
                </mxCell>
                <mxCell id="79" value="Sectors" style="whiteSpace=wrap;html=1;" parent="13" vertex="1">
                    <mxGeometry x="1315" y="387" width="100" height="40" as="geometry"/>
                </mxCell>
                <mxCell id="80" value="" style="edgeStyle=elbowEdgeStyle;elbow=vertical;html=1;rounded=0;" parent="13" source="29" target="81" edge="1">
                    <mxGeometry relative="1" as="geometry">
                        <mxPoint x="-14354.875" y="301" as="sourcePoint"/>
                    </mxGeometry>
                </mxCell>
                <mxCell id="81" value="Controls" style="whiteSpace=wrap;html=1;" parent="13" vertex="1">
                    <mxGeometry x="160" y="387" width="100" height="40" as="geometry"/>
                </mxCell>
                <mxCell id="82" value="" style="edgeStyle=elbowEdgeStyle;elbow=vertical;html=1;rounded=0;" parent="13" source="29" target="83" edge="1">
                    <mxGeometry relative="1" as="geometry">
                        <mxPoint x="-14025.875" y="301" as="sourcePoint"/>
                    </mxGeometry>
                </mxCell>
                <mxCell id="83" value="Display" style="whiteSpace=wrap;html=1;" parent="13" vertex="1">
                    <mxGeometry x="615" y="387" width="100" height="40" as="geometry"/>
                </mxCell>
                <mxCell id="92" value="" style="edgeStyle=elbowEdgeStyle;elbow=vertical;html=1;rounded=0;endArrow=none;endFill=0;startArrow=none;startFill=0;" parent="13" source="81" target="93" edge="1">
                    <mxGeometry relative="1" as="geometry">
                        <mxPoint x="-12842.875" y="391" as="sourcePoint"/>
                    </mxGeometry>
                </mxCell>
                <mxCell id="93" value="Button&lt;br&gt;Data" style="whiteSpace=wrap;html=1;" parent="13" vertex="1">
                    <mxGeometry x="300" y="477" width="100" height="40" as="geometry"/>
                </mxCell>
                <mxCell id="94" value="" style="edgeStyle=elbowEdgeStyle;elbow=vertical;html=1;rounded=0;startArrow=none;startFill=0;endArrow=none;endFill=0;" parent="13" source="81" target="95" edge="1">
                    <mxGeometry relative="1" as="geometry">
                        <mxPoint x="-12842.875" y="391" as="sourcePoint"/>
                    </mxGeometry>
                </mxCell>
                <mxCell id="95" value="Button&lt;br&gt;Years" style="whiteSpace=wrap;html=1;" parent="13" vertex="1">
                    <mxGeometry x="160" y="477" width="100" height="40" as="geometry"/>
                </mxCell>
                <mxCell id="96" value="" style="edgeStyle=elbowEdgeStyle;elbow=vertical;html=1;rounded=0;startArrow=classic;startFill=1;endArrow=none;endFill=0;" parent="13" source="81" target="97" edge="1">
                    <mxGeometry relative="1" as="geometry">
                        <mxPoint x="-12100.875" y="391" as="sourcePoint"/>
                    </mxGeometry>
                </mxCell>
                <mxCell id="97" value="Button &lt;br&gt;Regions" style="whiteSpace=wrap;html=1;" parent="13" vertex="1">
                    <mxGeometry x="20" y="477" width="100" height="40" as="geometry"/>
                </mxCell>
                <mxCell id="98" value="" style="edgeStyle=elbowEdgeStyle;elbow=vertical;html=1;rounded=0;" parent="13" source="83" target="99" edge="1">
                    <mxGeometry relative="1" as="geometry">
                        <mxPoint x="-11176.875" y="391" as="sourcePoint"/>
                    </mxGeometry>
                </mxCell>
                <mxCell id="99" value="ButtonGroup&lt;br&gt;Balances" style="whiteSpace=wrap;html=1;" parent="13" vertex="1">
                    <mxGeometry x="440" y="477" width="100" height="40" as="geometry"/>
                </mxCell>
                <mxCell id="100" value="" style="edgeStyle=elbowEdgeStyle;elbow=vertical;html=1;rounded=0;" parent="13" source="83" target="101" edge="1">
                    <mxGeometry relative="1" as="geometry">
                        <mxPoint x="-10504.875" y="391" as="sourcePoint"/>
                    </mxGeometry>
                </mxCell>
                <mxCell id="101" value="ButtonGroup&lt;br&gt;Regions" style="whiteSpace=wrap;html=1;" parent="13" vertex="1">
                    <mxGeometry x="580" y="477" width="100" height="40" as="geometry"/>
                </mxCell>
                <mxCell id="102" value="" style="edgeStyle=elbowEdgeStyle;elbow=vertical;html=1;rounded=0;" parent="13" source="83" target="103" edge="1">
                    <mxGeometry relative="1" as="geometry">
                        <mxPoint x="-9790.875" y="391" as="sourcePoint"/>
                    </mxGeometry>
                </mxCell>
                <mxCell id="103" value="InputGroup&lt;br&gt;Years" style="whiteSpace=wrap;html=1;" parent="13" vertex="1">
                    <mxGeometry x="790" y="477" width="100" height="40" as="geometry"/>
                </mxCell>
                <mxCell id="104" value="" style="edgeStyle=elbowEdgeStyle;elbow=vertical;html=1;rounded=0;startArrow=classic;startFill=1;endArrow=none;endFill=0;" parent="13" source="99" target="105" edge="1">
                    <mxGeometry relative="1" as="geometry">
                        <mxPoint x="-8786.375" y="481" as="sourcePoint"/>
                    </mxGeometry>
                </mxCell>
                <mxCell id="105" value="Button&lt;br&gt;Balance" style="whiteSpace=wrap;html=1;" parent="13" vertex="1">
                    <mxGeometry x="440" y="567" width="100" height="40" as="geometry"/>
                </mxCell>
                <mxCell id="106" value="" style="edgeStyle=elbowEdgeStyle;elbow=vertical;html=1;rounded=0;startArrow=classic;startFill=1;endArrow=none;endFill=0;" parent="13" source="101" target="107" edge="1">
                    <mxGeometry relative="1" as="geometry">
                        <mxPoint x="-8786.375" y="481" as="sourcePoint"/>
                    </mxGeometry>
                </mxCell>
                <mxCell id="107" value="Button&lt;br&gt;Region" style="whiteSpace=wrap;html=1;" parent="13" vertex="1">
                    <mxGeometry x="580" y="567" width="100" height="40" as="geometry"/>
                </mxCell>
                <mxCell id="110" value="" style="edgeStyle=elbowEdgeStyle;elbow=vertical;html=1;rounded=0;endArrow=none;endFill=0;" parent="13" source="103" target="177" edge="1">
                    <mxGeometry relative="1" as="geometry">
                        <mxPoint x="-8786.375" y="481" as="sourcePoint"/>
                    </mxGeometry>
                </mxCell>
                <mxCell id="131" value="" style="edgeStyle=elbowEdgeStyle;elbow=vertical;html=1;rounded=0;" parent="13" source="25" target="132" edge="1">
                    <mxGeometry relative="1" as="geometry">
                        <mxPoint x="-4103" y="307" as="sourcePoint"/>
                    </mxGeometry>
                </mxCell>
                <mxCell id="132" value="Button&lt;br&gt;Zoom" style="whiteSpace=wrap;html=1;" parent="13" vertex="1">
                    <mxGeometry x="1455" y="387" width="100" height="40" as="geometry"/>
                </mxCell>
                <mxCell id="133" value="" style="edgeStyle=elbowEdgeStyle;elbow=vertical;html=1;rounded=0;" parent="13" source="25" target="134" edge="1">
                    <mxGeometry relative="1" as="geometry">
                        <mxPoint x="-3131.75" y="307" as="sourcePoint"/>
                    </mxGeometry>
                </mxCell>
                <mxCell id="134" value="Button&lt;br&gt;Refresh" style="whiteSpace=wrap;html=1;" parent="13" vertex="1">
                    <mxGeometry x="1595" y="387" width="100" height="40" as="geometry"/>
                </mxCell>
                <mxCell id="135" value="" style="edgeStyle=elbowEdgeStyle;elbow=vertical;html=1;rounded=0;" parent="13" source="25" target="136" edge="1">
                    <mxGeometry relative="1" as="geometry">
                        <mxPoint x="-2097.5" y="307" as="sourcePoint"/>
                    </mxGeometry>
                </mxCell>
                <mxCell id="136" value="Button&lt;br&gt;Table" style="whiteSpace=wrap;html=1;" parent="13" vertex="1">
                    <mxGeometry x="1735" y="387" width="100" height="40" as="geometry"/>
                </mxCell>
                <mxCell id="137" value="" style="edgeStyle=elbowEdgeStyle;elbow=vertical;html=1;rounded=0;" parent="13" source="25" target="138" edge="1">
                    <mxGeometry relative="1" as="geometry">
                        <mxPoint x="-1000.25" y="307" as="sourcePoint"/>
                    </mxGeometry>
                </mxCell>
                <mxCell id="138" value="Button&lt;br&gt;Share" style="whiteSpace=wrap;html=1;" parent="13" vertex="1">
                    <mxGeometry x="1875" y="387" width="100" height="40" as="geometry"/>
                </mxCell>
                <mxCell id="149" value="" style="edgeStyle=elbowEdgeStyle;elbow=vertical;html=1;rounded=0;" parent="13" source="138" target="150" edge="1">
                    <mxGeometry relative="1" as="geometry">
                        <mxPoint x="798.75" y="397" as="sourcePoint"/>
                    </mxGeometry>
                </mxCell>
                <mxCell id="150" value="Modal&lt;br&gt;Share" style="whiteSpace=wrap;html=1;" parent="13" vertex="1">
                    <mxGeometry x="1875" y="477" width="100" height="40" as="geometry"/>
                </mxCell>
                <mxCell id="170" value="" style="edgeStyle=elbowEdgeStyle;elbow=vertical;html=1;rounded=0;startArrow=classic;startFill=1;endArrow=none;endFill=0;" parent="13" source="103" target="173" edge="1">
                    <mxGeometry relative="1" as="geometry">
                        <mxPoint x="-246" y="487" as="sourcePoint"/>
                    </mxGeometry>
                </mxCell>
                <mxCell id="178" style="edgeStyle=orthogonalEdgeStyle;rounded=0;orthogonalLoop=1;jettySize=auto;html=1;startArrow=none;startFill=0;endArrow=classic;endFill=1;" parent="13" source="173" target="177" edge="1">
                    <mxGeometry relative="1" as="geometry"/>
                </mxCell>
                <mxCell id="173" value="Slider&lt;br&gt;Years" style="whiteSpace=wrap;html=1;" parent="13" vertex="1">
                    <mxGeometry x="860" y="567" width="100" height="40" as="geometry"/>
                </mxCell>
                <mxCell id="177" value="Modal&lt;br&gt;Years" style="whiteSpace=wrap;html=1;" parent="13" vertex="1">
                    <mxGeometry x="720" y="567" width="100" height="40" as="geometry"/>
                </mxCell>
                <mxCell id="193" style="edgeStyle=orthogonalEdgeStyle;rounded=0;orthogonalLoop=1;jettySize=auto;html=1;startArrow=none;startFill=0;endArrow=classic;endFill=1;entryX=0;entryY=0.5;entryDx=0;entryDy=0;" parent="13" source="73" target="22" edge="1">
                    <mxGeometry relative="1" as="geometry">
                        <mxPoint x="945" y="716.4000244140625" as="targetPoint"/>
                        <Array as="points">
                            <mxPoint x="853" y="407"/>
                            <mxPoint x="853" y="227"/>
                        </Array>
                    </mxGeometry>
                </mxCell>
                <mxCell id="43" value="Interceptor" style="whiteSpace=wrap;html=1;" parent="1" vertex="1">
                    <mxGeometry x="2460" y="675" width="100" height="40" as="geometry"/>
                </mxCell>
                <mxCell id="121" style="edgeStyle=orthogonalEdgeStyle;rounded=0;orthogonalLoop=1;jettySize=auto;html=1;entryX=0;entryY=0.5;entryDx=0;entryDy=0;startArrow=none;startFill=0;endArrow=classic;endFill=1;" parent="1" source="37" target="43" edge="1">
                    <mxGeometry relative="1" as="geometry"/>
                </mxCell>
                <mxCell id="114" value="" style="edgeStyle=orthogonalEdgeStyle;rounded=0;orthogonalLoop=1;jettySize=auto;html=1;endArrow=none;exitX=0.5;exitY=1;exitDx=0;exitDy=0;" parent="1" source="43" target="51" edge="1">
                    <mxGeometry relative="1" as="geometry">
                        <mxPoint x="2900.38" y="738" as="sourcePoint"/>
                        <mxPoint x="860.13" y="801" as="targetPoint"/>
                    </mxGeometry>
                </mxCell>
                <mxCell id="123" value="" style="edgeStyle=orthogonalEdgeStyle;rounded=0;orthogonalLoop=1;jettySize=auto;html=1;startArrow=none;startFill=0;endArrow=classic;endFill=1;entryX=0.5;entryY=1;entryDx=0;entryDy=0;" parent="1" source="51" target="37" edge="1">
                    <mxGeometry relative="1" as="geometry">
                        <mxPoint x="2410.005" y="802" as="targetPoint"/>
                    </mxGeometry>
                </mxCell>
                <mxCell id="124" value="Yes" style="edgeLabel;html=1;align=center;verticalAlign=middle;resizable=0;points=[];" parent="123" vertex="1" connectable="0">
                    <mxGeometry x="-0.4478" relative="1" as="geometry">
                        <mxPoint as="offset"/>
                    </mxGeometry>
                </mxCell>
                <mxCell id="51" value="In&lt;br&gt;Cache?" style="rhombus;whiteSpace=wrap;html=1;" parent="1" vertex="1">
                    <mxGeometry x="2470.005" y="762" width="80" height="80" as="geometry"/>
                </mxCell>
                <mxCell id="68" value="" style="edgeStyle=orthogonalEdgeStyle;rounded=0;orthogonalLoop=1;jettySize=auto;html=1;endArrow=classic;endFill=1;startArrow=none;startFill=0;" parent="1" source="51" target="67" edge="1">
                    <mxGeometry relative="1" as="geometry"/>
                </mxCell>
                <mxCell id="69" value="No" style="edgeLabel;html=1;align=center;verticalAlign=middle;resizable=0;points=[];" parent="68" vertex="1" connectable="0">
                    <mxGeometry x="-0.1405" relative="1" as="geometry">
                        <mxPoint as="offset"/>
                    </mxGeometry>
                </mxCell>
                <mxCell id="126" value="" style="edgeStyle=orthogonalEdgeStyle;rounded=0;orthogonalLoop=1;jettySize=auto;html=1;startArrow=none;startFill=0;endArrow=classic;endFill=1;entryX=0.5;entryY=1;entryDx=0;entryDy=0;" parent="1" source="67" target="37" edge="1">
                    <mxGeometry relative="1" as="geometry">
                        <mxPoint x="2430.005" y="957" as="targetPoint"/>
                    </mxGeometry>
                </mxCell>
                <mxCell id="127" value="GetRequest" style="edgeLabel;html=1;align=center;verticalAlign=middle;resizable=0;points=[];" parent="126" vertex="1" connectable="0">
                    <mxGeometry x="-0.6513" y="-1" relative="1" as="geometry">
                        <mxPoint as="offset"/>
                    </mxGeometry>
                </mxCell>
                <mxCell id="67" value="Backend" style="shape=cylinder;whiteSpace=wrap;html=1;boundedLbl=1;backgroundOutline=1;" parent="1" vertex="1">
                    <mxGeometry x="2480.005" y="917" width="60" height="80" as="geometry"/>
                </mxCell>
                <mxCell id="140" value="" style="edgeStyle=orthogonalEdgeStyle;rounded=0;orthogonalLoop=1;jettySize=auto;html=1;startArrow=none;startFill=0;endArrow=classic;endFill=1;entryX=1;entryY=0.5;entryDx=0;entryDy=0;exitX=0.25;exitY=0;exitDx=0;exitDy=0;" parent="1" source="37" target="130" edge="1">
                    <mxGeometry relative="1" as="geometry">
                        <mxPoint x="2215" y="695" as="targetPoint"/>
                        <Array as="points">
                            <mxPoint x="2310" y="377"/>
                        </Array>
                    </mxGeometry>
                </mxCell>
                <mxCell id="186" style="edgeStyle=orthogonalEdgeStyle;rounded=0;orthogonalLoop=1;jettySize=auto;html=1;startArrow=none;startFill=0;endArrow=classic;endFill=1;entryX=0.75;entryY=0;entryDx=0;entryDy=0;" parent="1" source="37" target="83" edge="1">
                    <mxGeometry relative="1" as="geometry">
                        <mxPoint x="805" y="467" as="targetPoint"/>
                        <Array as="points">
                            <mxPoint x="2311" y="62"/>
                            <mxPoint x="780" y="62"/>
                        </Array>
                    </mxGeometry>
                </mxCell>
                <mxCell id="37" value="Store" style="whiteSpace=wrap;html=1;" parent="1" vertex="1">
                    <mxGeometry x="2285" y="675" width="100" height="40" as="geometry"/>
                </mxCell>
                <mxCell id="36" value="" style="edgeStyle=orthogonalEdgeStyle;rounded=0;orthogonalLoop=1;jettySize=auto;html=1;dashed=1;" parent="1" source="14" target="37" edge="1">
                    <mxGeometry relative="1" as="geometry"/>
                </mxCell>
                <mxCell id="187" style="edgeStyle=orthogonalEdgeStyle;rounded=0;orthogonalLoop=1;jettySize=auto;html=1;exitX=0.75;exitY=1;exitDx=0;exitDy=0;entryX=0;entryY=0.5;entryDx=0;entryDy=0;startArrow=none;startFill=0;endArrow=classic;endFill=1;" parent="1" source="130" target="37" edge="1">
                    <mxGeometry relative="1" as="geometry"/>
                </mxCell>
                <mxCell id="191" style="edgeStyle=orthogonalEdgeStyle;rounded=0;orthogonalLoop=1;jettySize=auto;html=1;exitX=0.5;exitY=1;exitDx=0;exitDy=0;startArrow=none;startFill=0;endArrow=classic;endFill=1;" parent="1" source="130" edge="1">
                    <mxGeometry relative="1" as="geometry">
                        <mxPoint x="2205.4285714285716" y="397.57142857142867" as="targetPoint"/>
                    </mxGeometry>
                </mxCell>
                <mxCell id="130" value="Main" style="whiteSpace=wrap;html=1;" parent="1" vertex="1">
                    <mxGeometry x="2156" y="357" width="100" height="40" as="geometry"/>
                </mxCell>
                <mxCell id="129" value="" style="edgeStyle=elbowEdgeStyle;elbow=vertical;html=1;rounded=0;" parent="1" source="22" target="130" edge="1">
                    <mxGeometry relative="1" as="geometry">
                        <mxPoint x="-3803" y="277" as="sourcePoint"/>
                    </mxGeometry>
                </mxCell>
                <mxCell id="148" style="edgeStyle=orthogonalEdgeStyle;rounded=0;orthogonalLoop=1;jettySize=auto;html=1;startArrow=none;startFill=0;endArrow=classic;endFill=1;entryX=0.5;entryY=1;entryDx=0;entryDy=0;" parent="1" source="136" target="130" edge="1">
                    <mxGeometry relative="1" as="geometry">
                        <mxPoint x="2211" y="444" as="targetPoint"/>
                        <Array as="points">
                            <mxPoint x="1875" y="695"/>
                            <mxPoint x="2206" y="695"/>
                        </Array>
                    </mxGeometry>
                </mxCell>
                <mxCell id="153" style="edgeStyle=orthogonalEdgeStyle;rounded=0;orthogonalLoop=1;jettySize=auto;html=1;entryX=0.5;entryY=1;entryDx=0;entryDy=0;startArrow=none;startFill=0;endArrow=classic;endFill=1;" parent="1" source="134" target="130" edge="1">
                    <mxGeometry relative="1" as="geometry">
                        <Array as="points">
                            <mxPoint x="1735" y="723"/>
                            <mxPoint x="2206" y="723"/>
                        </Array>
                    </mxGeometry>
                </mxCell>
                <mxCell id="154" style="edgeStyle=orthogonalEdgeStyle;rounded=0;orthogonalLoop=1;jettySize=auto;html=1;entryX=0.5;entryY=1;entryDx=0;entryDy=0;startArrow=none;startFill=0;endArrow=classic;endFill=1;" parent="1" source="132" target="130" edge="1">
                    <mxGeometry relative="1" as="geometry">
                        <Array as="points">
                            <mxPoint x="1595" y="752"/>
                            <mxPoint x="2206" y="752"/>
                        </Array>
                    </mxGeometry>
                </mxCell>
                <mxCell id="159" style="edgeStyle=orthogonalEdgeStyle;rounded=0;orthogonalLoop=1;jettySize=auto;html=1;entryX=0.25;entryY=1;entryDx=0;entryDy=0;startArrow=none;startFill=0;endArrow=classic;endFill=1;exitX=0;exitY=0.5;exitDx=0;exitDy=0;" parent="1" source="103" target="37" edge="1">
                    <mxGeometry relative="1" as="geometry">
                        <Array as="points">
                            <mxPoint x="798" y="557"/>
                            <mxPoint x="798" y="1126"/>
                            <mxPoint x="2310" y="1126"/>
                        </Array>
                    </mxGeometry>
                </mxCell>
                <mxCell id="179" style="edgeStyle=orthogonalEdgeStyle;rounded=0;orthogonalLoop=1;jettySize=auto;html=1;entryX=0.25;entryY=1;entryDx=0;entryDy=0;startArrow=none;startFill=0;endArrow=classic;endFill=1;" parent="1" source="101" target="37" edge="1">
                    <mxGeometry relative="1" as="geometry">
                        <Array as="points">
                            <mxPoint x="654" y="557"/>
                            <mxPoint x="654" y="1152"/>
                            <mxPoint x="2310" y="1152"/>
                        </Array>
                    </mxGeometry>
                </mxCell>
                <mxCell id="180" style="edgeStyle=orthogonalEdgeStyle;rounded=0;orthogonalLoop=1;jettySize=auto;html=1;entryX=0.25;entryY=1;entryDx=0;entryDy=0;startArrow=none;startFill=0;endArrow=classic;endFill=1;" parent="1" source="99" target="37" edge="1">
                    <mxGeometry relative="1" as="geometry">
                        <Array as="points">
                            <mxPoint x="504" y="557"/>
                            <mxPoint x="504" y="1182"/>
                            <mxPoint x="2310" y="1182"/>
                        </Array>
                    </mxGeometry>
                </mxCell>
                <mxCell id="183" style="edgeStyle=orthogonalEdgeStyle;rounded=0;orthogonalLoop=1;jettySize=auto;html=1;entryX=0.25;entryY=1;entryDx=0;entryDy=0;startArrow=none;startFill=0;endArrow=none;endFill=0;" parent="1" source="93" target="37" edge="1">
                    <mxGeometry relative="1" as="geometry">
                        <Array as="points">
                            <mxPoint x="440" y="921"/>
                            <mxPoint x="2310" y="921"/>
                        </Array>
                    </mxGeometry>
                </mxCell>
                <mxCell id="184" style="edgeStyle=orthogonalEdgeStyle;rounded=0;orthogonalLoop=1;jettySize=auto;html=1;entryX=0.25;entryY=1;entryDx=0;entryDy=0;startArrow=none;startFill=0;endArrow=none;endFill=0;" parent="1" source="95" target="37" edge="1">
                    <mxGeometry relative="1" as="geometry">
                        <Array as="points">
                            <mxPoint x="300" y="948"/>
                            <mxPoint x="2310" y="948"/>
                        </Array>
                    </mxGeometry>
                </mxCell>
                <mxCell id="185" style="edgeStyle=orthogonalEdgeStyle;rounded=0;orthogonalLoop=1;jettySize=auto;html=1;entryX=0.25;entryY=1;entryDx=0;entryDy=0;startArrow=none;startFill=0;endArrow=none;endFill=0;" parent="1" source="97" target="37" edge="1">
                    <mxGeometry relative="1" as="geometry">
                        <Array as="points">
                            <mxPoint x="160" y="976"/>
                            <mxPoint x="2310" y="976"/>
                        </Array>
                    </mxGeometry>
                </mxCell>
                <mxCell id="188" style="edgeStyle=orthogonalEdgeStyle;rounded=0;orthogonalLoop=1;jettySize=auto;html=1;entryX=0.5;entryY=1;entryDx=0;entryDy=0;startArrow=none;startFill=0;endArrow=classic;endFill=1;" parent="1" source="79" target="130" edge="1">
                    <mxGeometry relative="1" as="geometry">
                        <Array as="points">
                            <mxPoint x="1455" y="781"/>
                            <mxPoint x="2206" y="781"/>
                        </Array>
                    </mxGeometry>
                </mxCell>
                <mxCell id="189" style="edgeStyle=orthogonalEdgeStyle;rounded=0;orthogonalLoop=1;jettySize=auto;html=1;startArrow=none;startFill=0;endArrow=classic;endFill=1;" parent="1" source="77" edge="1">
                    <mxGeometry relative="1" as="geometry">
                        <mxPoint x="2205" y="397" as="targetPoint"/>
                        <Array as="points">
                            <mxPoint x="1315" y="818"/>
                            <mxPoint x="2205" y="818"/>
                        </Array>
                    </mxGeometry>
                </mxCell>
                <mxCell id="190" style="edgeStyle=orthogonalEdgeStyle;rounded=0;orthogonalLoop=1;jettySize=auto;html=1;startArrow=none;startFill=0;endArrow=classic;endFill=1;" parent="1" source="75" edge="1">
                    <mxGeometry relative="1" as="geometry">
                        <mxPoint x="2206.0000348772323" y="396.1429007393974" as="targetPoint"/>
                        <Array as="points">
                            <mxPoint x="1175" y="853"/>
                            <mxPoint x="2206" y="853"/>
                        </Array>
                    </mxGeometry>
                </mxCell>
            </root>
        </mxGraphModel>
    </diagram>
    <diagram id="jF-PBCRz7HeZN-fCLs_G" name="Config Button State Diagram">
        <mxGraphModel dx="1950" dy="814" grid="0" gridSize="10" guides="0" tooltips="1" connect="1" arrows="1" fold="1" page="1" pageScale="1" pageWidth="827" pageHeight="1169" math="0" shadow="0">
            <root>
                <mxCell id="xGaBPA3lZmy_8U2fDIkF-0"/>
                <mxCell id="xGaBPA3lZmy_8U2fDIkF-1" parent="xGaBPA3lZmy_8U2fDIkF-0"/>
                <mxCell id="ryoCJrkSFlGAgeohLSRd-8" value="&lt;font size=&quot;3&quot;&gt;TRUE&lt;/font&gt;" style="edgeStyle=none;html=1;exitX=1;exitY=0.5;exitDx=0;exitDy=0;entryX=0;entryY=0.5;entryDx=0;entryDy=0;" edge="1" parent="xGaBPA3lZmy_8U2fDIkF-1" source="ryoCJrkSFlGAgeohLSRd-10" target="ryoCJrkSFlGAgeohLSRd-3">
                    <mxGeometry relative="1" as="geometry">
                        <mxPoint x="500" y="335" as="targetPoint"/>
                    </mxGeometry>
                </mxCell>
                <mxCell id="ryoCJrkSFlGAgeohLSRd-3" value="&lt;span style=&quot;background-color: rgb(39 , 40 , 34) ; color: rgb(248 , 248 , 242) ; font-family: &amp;#34;jetbrains mono&amp;#34; , &amp;#34;courier new&amp;#34; , monospace , &amp;#34;consolas&amp;#34; , &amp;#34;courier new&amp;#34; , monospace ; font-size: 14px&quot;&gt;buttonIsOn&lt;/span&gt;" style="shape=rhombus;html=1;dashed=0;whitespace=wrap;perimeter=rhombusPerimeter;" vertex="1" parent="xGaBPA3lZmy_8U2fDIkF-1">
                    <mxGeometry x="495" y="270" width="164.74" height="128" as="geometry"/>
                </mxCell>
                <mxCell id="ryoCJrkSFlGAgeohLSRd-6" style="edgeStyle=none;html=1;entryX=0.5;entryY=0;entryDx=0;entryDy=0;" edge="1" parent="xGaBPA3lZmy_8U2fDIkF-1" source="ryoCJrkSFlGAgeohLSRd-4" target="ryoCJrkSFlGAgeohLSRd-10">
                    <mxGeometry relative="1" as="geometry"/>
                </mxCell>
                <mxCell id="ryoCJrkSFlGAgeohLSRd-4" value="&lt;span style=&quot;font-family: &amp;#34;jetbrains mono&amp;#34; , &amp;#34;courier new&amp;#34; , monospace , &amp;#34;consolas&amp;#34; , &amp;#34;courier new&amp;#34; , monospace ; font-size: 14px ; color: rgb(166 , 226 , 46)&quot;&gt;onClick&lt;/span&gt;&lt;span style=&quot;background-color: rgb(39 , 40 , 34) ; color: rgb(248 , 248 , 242) ; font-family: &amp;#34;jetbrains mono&amp;#34; , &amp;#34;courier new&amp;#34; , monospace , &amp;#34;consolas&amp;#34; , &amp;#34;courier new&amp;#34; , monospace ; font-size: 14px&quot;&gt;()&lt;/span&gt;" style="html=1;dashed=0;whitespace=wrap;" vertex="1" parent="xGaBPA3lZmy_8U2fDIkF-1">
                    <mxGeometry x="203" y="94" width="100" height="50" as="geometry"/>
                </mxCell>
                <mxCell id="ryoCJrkSFlGAgeohLSRd-10" value="&lt;div style=&quot;color: rgb(248 , 248 , 242) ; background-color: rgb(39 , 40 , 34) ; font-family: &amp;#34;jetbrains mono&amp;#34; , &amp;#34;courier new&amp;#34; , monospace , &amp;#34;consolas&amp;#34; , &amp;#34;courier new&amp;#34; , monospace ; font-size: 14px ; line-height: 19px&quot;&gt;configViewActivated&lt;/div&gt;" style="shape=rhombus;html=1;dashed=0;whitespace=wrap;perimeter=rhombusPerimeter;" vertex="1" parent="xGaBPA3lZmy_8U2fDIkF-1">
                    <mxGeometry x="152" y="276" width="205" height="116" as="geometry"/>
                </mxCell>
                <mxCell id="ryoCJrkSFlGAgeohLSRd-11" value="&lt;font size=&quot;3&quot;&gt;FALSE&lt;/font&gt;" style="edgeStyle=none;html=1;exitX=0;exitY=0.5;exitDx=0;exitDy=0;entryX=0.962;entryY=0.497;entryDx=0;entryDy=0;entryPerimeter=0;" edge="1" parent="xGaBPA3lZmy_8U2fDIkF-1" source="ryoCJrkSFlGAgeohLSRd-10" target="ryoCJrkSFlGAgeohLSRd-12">
                    <mxGeometry relative="1" as="geometry">
                        <mxPoint x="346.74" y="345" as="sourcePoint"/>
                        <mxPoint x="31" y="335" as="targetPoint"/>
                    </mxGeometry>
                </mxCell>
                <mxCell id="ryoCJrkSFlGAgeohLSRd-12" value="&lt;span style=&quot;background-color: rgb(39 , 40 , 34) ; color: rgb(248 , 248 , 242) ; font-family: &amp;#34;jetbrains mono&amp;#34; , &amp;#34;courier new&amp;#34; , monospace , &amp;#34;consolas&amp;#34; , &amp;#34;courier new&amp;#34; , monospace ; font-size: 14px&quot;&gt;buttonIsOn&lt;/span&gt;" style="shape=rhombus;html=1;dashed=0;whitespace=wrap;perimeter=rhombusPerimeter;" vertex="1" parent="xGaBPA3lZmy_8U2fDIkF-1">
                    <mxGeometry x="-137" y="272" width="164.74" height="128" as="geometry"/>
                </mxCell>
                <mxCell id="ryoCJrkSFlGAgeohLSRd-13" value="&lt;font size=&quot;3&quot;&gt;FALSE&lt;/font&gt;" style="edgeStyle=none;html=1;exitX=0;exitY=0.5;exitDx=0;exitDy=0;entryX=1;entryY=0.5;entryDx=0;entryDy=0;" edge="1" parent="xGaBPA3lZmy_8U2fDIkF-1" source="ryoCJrkSFlGAgeohLSRd-12" target="ryoCJrkSFlGAgeohLSRd-20">
                    <mxGeometry relative="1" as="geometry">
                        <mxPoint x="182" y="345" as="sourcePoint"/>
                        <mxPoint x="-257" y="335" as="targetPoint"/>
                    </mxGeometry>
                </mxCell>
                <mxCell id="ryoCJrkSFlGAgeohLSRd-14" value="&lt;font size=&quot;3&quot;&gt;FALSE&lt;/font&gt;" style="edgeStyle=none;html=1;exitX=1;exitY=0.5;exitDx=0;exitDy=0;entryX=0;entryY=0.5;entryDx=0;entryDy=0;" edge="1" parent="xGaBPA3lZmy_8U2fDIkF-1" source="ryoCJrkSFlGAgeohLSRd-3" target="ryoCJrkSFlGAgeohLSRd-21">
                    <mxGeometry relative="1" as="geometry">
                        <mxPoint x="-127" y="346" as="sourcePoint"/>
                        <mxPoint x="769" y="334" as="targetPoint"/>
                    </mxGeometry>
                </mxCell>
                <mxCell id="ryoCJrkSFlGAgeohLSRd-15" value="&lt;font size=&quot;3&quot;&gt;TRUE&lt;/font&gt;" style="edgeStyle=none;html=1;exitX=0.5;exitY=1;exitDx=0;exitDy=0;entryX=0.5;entryY=0;entryDx=0;entryDy=0;" edge="1" parent="xGaBPA3lZmy_8U2fDIkF-1" source="ryoCJrkSFlGAgeohLSRd-3" target="ryoCJrkSFlGAgeohLSRd-22">
                    <mxGeometry relative="1" as="geometry">
                        <mxPoint x="346.7399999999998" y="345" as="sourcePoint"/>
                        <mxPoint x="577" y="496" as="targetPoint"/>
                    </mxGeometry>
                </mxCell>
                <mxCell id="ryoCJrkSFlGAgeohLSRd-16" value="&lt;font size=&quot;3&quot;&gt;TRUE&lt;/font&gt;" style="edgeStyle=none;html=1;exitX=0.5;exitY=1;exitDx=0;exitDy=0;entryX=0.5;entryY=0;entryDx=0;entryDy=0;" edge="1" parent="xGaBPA3lZmy_8U2fDIkF-1" source="ryoCJrkSFlGAgeohLSRd-12" target="ryoCJrkSFlGAgeohLSRd-19">
                    <mxGeometry relative="1" as="geometry">
                        <mxPoint x="587.3699999999999" y="408" as="sourcePoint"/>
                        <mxPoint x="-55" y="484" as="targetPoint"/>
                    </mxGeometry>
                </mxCell>
                <mxCell id="ryoCJrkSFlGAgeohLSRd-19" value="&lt;span style=&quot;font-family: &amp;#34;jetbrains mono&amp;#34; , &amp;#34;courier new&amp;#34; , monospace , &amp;#34;consolas&amp;#34; , &amp;#34;courier new&amp;#34; , monospace ; font-size: 14px ; background-color: rgb(42 , 42 , 42)&quot;&gt;&lt;font color=&quot;#a6e22e&quot;&gt;transit&lt;br&gt;&lt;/font&gt;&lt;/span&gt;&lt;span style=&quot;background-color: rgb(39 , 40 , 34) ; color: rgb(248 , 248 , 242) ; font-family: &amp;#34;jetbrains mono&amp;#34; , &amp;#34;courier new&amp;#34; , monospace , &amp;#34;consolas&amp;#34; , &amp;#34;courier new&amp;#34; , monospace ; font-size: 14px&quot;&gt;from:ON&lt;br&gt;to:OFF&lt;/span&gt;" style="html=1;dashed=0;whitespace=wrap;" vertex="1" parent="xGaBPA3lZmy_8U2fDIkF-1">
                    <mxGeometry x="-103" y="487" width="100" height="54" as="geometry"/>
                </mxCell>
                <mxCell id="ryoCJrkSFlGAgeohLSRd-20" value="&lt;div style=&quot;color: rgb(248 , 248 , 242) ; background-color: rgb(39 , 40 , 34) ; font-family: &amp;#34;jetbrains mono&amp;#34; , &amp;#34;courier new&amp;#34; , monospace , &amp;#34;consolas&amp;#34; , &amp;#34;courier new&amp;#34; , monospace ; font-size: 14px ; line-height: 19px&quot;&gt;&lt;span style=&quot;color: #f92672&quot;&gt;return&lt;/span&gt;&lt;/div&gt;" style="html=1;dashed=0;whitespace=wrap;" vertex="1" parent="xGaBPA3lZmy_8U2fDIkF-1">
                    <mxGeometry x="-355" y="309" width="100" height="50" as="geometry"/>
                </mxCell>
                <mxCell id="ryoCJrkSFlGAgeohLSRd-25" style="edgeStyle=none;html=1;entryX=0;entryY=0.5;entryDx=0;entryDy=0;fontSize=36;" edge="1" parent="xGaBPA3lZmy_8U2fDIkF-1" source="ryoCJrkSFlGAgeohLSRd-21" target="ryoCJrkSFlGAgeohLSRd-24">
                    <mxGeometry relative="1" as="geometry"/>
                </mxCell>
                <mxCell id="ryoCJrkSFlGAgeohLSRd-21" value="&lt;span style=&quot;font-family: &amp;#34;jetbrains mono&amp;#34; , &amp;#34;courier new&amp;#34; , monospace , &amp;#34;consolas&amp;#34; , &amp;#34;courier new&amp;#34; , monospace ; font-size: 14px ; background-color: rgb(42 , 42 , 42)&quot;&gt;&lt;font color=&quot;#a6e22e&quot;&gt;transit&lt;br&gt;&lt;/font&gt;&lt;/span&gt;&lt;span style=&quot;background-color: rgb(39 , 40 , 34) ; color: rgb(248 , 248 , 242) ; font-family: &amp;#34;jetbrains mono&amp;#34; , &amp;#34;courier new&amp;#34; , monospace , &amp;#34;consolas&amp;#34; , &amp;#34;courier new&amp;#34; , monospace ; font-size: 14px&quot;&gt;from:OFF&lt;br&gt;to:ON&lt;/span&gt;" style="html=1;dashed=0;whitespace=wrap;" vertex="1" parent="xGaBPA3lZmy_8U2fDIkF-1">
                    <mxGeometry x="779" y="308" width="100" height="54" as="geometry"/>
                </mxCell>
                <mxCell id="ryoCJrkSFlGAgeohLSRd-22" value="&lt;div style=&quot;color: rgb(248 , 248 , 242) ; background-color: rgb(39 , 40 , 34) ; font-family: &amp;#34;jetbrains mono&amp;#34; , &amp;#34;courier new&amp;#34; , monospace , &amp;#34;consolas&amp;#34; , &amp;#34;courier new&amp;#34; , monospace ; font-size: 14px ; line-height: 19px&quot;&gt;&lt;span style=&quot;color: #f92672&quot;&gt;return&lt;/span&gt;&lt;/div&gt;" style="html=1;dashed=0;whitespace=wrap;" vertex="1" parent="xGaBPA3lZmy_8U2fDIkF-1">
                    <mxGeometry x="527" y="500" width="100" height="50" as="geometry"/>
                </mxCell>
                <mxCell id="ryoCJrkSFlGAgeohLSRd-24" value="&lt;font color=&quot;#a6e22e&quot; face=&quot;jetbrains mono, courier new, monospace, consolas, courier new, monospace&quot;&gt;&lt;span style=&quot;font-size: 14px&quot;&gt;setActiveView&lt;/span&gt;&lt;/font&gt;" style="html=1;dashed=0;whitespace=wrap;" vertex="1" parent="xGaBPA3lZmy_8U2fDIkF-1">
                    <mxGeometry x="966" y="301" width="127.78" height="69" as="geometry"/>
                </mxCell>
            </root>
        </mxGraphModel>
    </diagram>
</mxfile>